<?xml version="1.0" encoding="utf-8"?>
<!-- Generator: Adobe Illustrator 21.1.0, SVG Export Plug-In . SVG Version: 6.00 Build 0)  -->
<svg version="1.1" id="Layer_1" xmlns="http://www.w3.org/2000/svg" xmlns:xlink="http://www.w3.org/1999/xlink" x="0px" y="0px"
	 viewBox="0 0 252 72" width="350" height="200" style="enable-background:new 0 0 252 72;" xml:space="preserve">
<style type="text/css">
	.st0{fill:#252160;}
	.st1{fill:#ED4636;}
</style>
<g>
	<path class="st0" d="M31.8,35c2.9,1.5,4.3,3.9,4.3,7.2c0,3.5-1.3,6.2-4,8c-2.7,1.9-5.9,2.8-9.9,2.8c-6.8,0-14.3-3-14.6-11.6h7.9
		c0.3,3.4,2.7,5,7.1,5c3.8,0,5.7-1.2,5.7-3.6c0-1.9-1.2-2.5-6.1-3.3c-1.1-0.2-1.9-0.4-2.2-0.4c-0.3-0.1-1-0.2-2.1-0.4
		c-1.1-0.2-1.8-0.4-2.1-0.5c-0.8-0.3-3-1-3.7-1.7c-0.7-0.7-2.1-1.7-2.6-2.8c-0.5-1.1-0.9-2.7-0.9-4.4c0-3.5,1.2-6.1,3.7-7.8
		c2.4-1.7,5.5-2.6,9.3-2.6c7.9,0,13.3,4,13.8,11.1h-7.7c-0.3-3-2.3-4.5-5.9-4.5c-3.6,0-5.5,1.5-5.5,3.6c0,2.3,2,2.9,6.9,3.6
		C27.3,33.5,30.2,34.3,31.8,35z"/>
	<path class="st0" d="M92.7,30.4v22H85v-4.7c-2.3,3.6-5.6,5.5-9.9,5.5c-2.9,0-5.4-0.9-7.5-2.6c-2.1-1.7-3.1-4.2-3.1-7.5
		c0-5.7,3.5-9,10.4-9.9l7.2-0.9c2.1-0.2,3.1-0.9,3.1-2.8c0-2.6-2.3-4.1-5.6-4.1c-4,0-6.1,2-6.3,5.1h-7.5c0.7-7.5,6.3-11.3,14.4-11.3
		C88.1,19.1,92.7,22.9,92.7,30.4z M82.7,44.3c1.6-1.5,2.4-3.4,2.4-5.7v-1.7c-0.7,0.4-1.9,0.7-3.9,1l-3.6,0.5
		c-3.5,0.5-5.3,1.9-5.3,4.3c0,2.6,1.8,3.9,4.6,3.9C79.2,46.5,81.1,45.8,82.7,44.3z"/>
	<path class="st0" d="M142.4,30.3v22.1h-7.9V31.9c0-3.8-1.7-5.7-4.9-5.7c-3.7,0-6,2.5-6,7.8v18.4h-7.9V31.9c0-3.8-1.7-5.7-5-5.7
		c-3.6,0-5.9,2.5-5.9,7.8v18.4h-7.9V19.7h7.8v4.8c1.2-3,3.9-5.4,8.3-5.4c4,0,7.2,2,8.8,5.4c2-3.6,5-5.4,9.4-5.4
		C138,19.1,142.4,23.4,142.4,30.3z"/>
	<path class="st0" d="M174.6,23.4c2.7,2.9,4,7,4,12.4c0,5.5-1.4,9.6-4.1,12.5c-2.8,2.9-6.2,4.3-10.3,4.3c-4.5,0-7.8-1.7-9.8-5v17
		h-7.9v-45h7.7v5.2c1.7-3.7,5.5-5.8,10.2-5.8C168.5,19.1,171.9,20.5,174.6,23.4z M170.6,36c0-6.2-3.6-9.7-8.2-9.7
		c-4.7,0-8.3,3.3-8.3,9.7c0,6.3,3.6,9.7,8.3,9.7C167,45.6,170.6,42.2,170.6,36z"/>
	<path class="st0" d="M211.3,38.4h-22.8c0.2,5,3.7,7.9,8.4,7.9c3.5,0,6.3-1.6,7.1-4.7h7.2c-0.6,3.6-2.3,6.5-5,8.5
		c-2.8,2.1-6,3.1-9.6,3.1c-4.3,0-8-1.5-11.1-4.4c-3.1-2.9-4.6-7.1-4.6-12.6c0-5.4,1.5-9.5,4.6-12.6c3-3,6.8-4.5,11.2-4.5
		c4.2,0,7.7,1.4,10.5,4.2c2.8,2.8,4.1,6.8,4.1,12V38.4z M188.7,32.7h14.9c-0.1-4.2-2.9-6.8-7-6.8C192.6,25.9,189.3,28.1,188.7,32.7z
		"/>
	<path class="st0" d="M245.7,52.4H238v-5c-1.7,3.6-5.4,5.7-10.1,5.7c-4.1,0-7.5-1.5-10.2-4.4c-2.8-3-4.2-7.2-4.2-12.6
		c0-5.5,1.4-9.7,4.1-12.6c2.7-2.9,6.1-4.4,10.1-4.4c4.3,0,8.1,1.8,10,4.9V7.6h7.9V52.4z M229.7,45.9c2.3,0,4.3-0.9,5.9-2.6
		c1.6-1.7,2.4-4.2,2.4-7.3c0-3.1-0.8-5.6-2.4-7.4c-1.6-1.7-3.6-2.6-5.9-2.6c-2.3,0-4.2,0.8-5.8,2.6c-1.6,1.7-2.4,4.2-2.4,7.4
		c0,3.1,0.8,5.6,2.4,7.3C225.5,45,227.4,45.9,229.7,45.9z"/>
	<polygon class="st0" points="36.4,19.4 36.4,26.5 46.3,26.5 46.3,32.7 46.3,41.7 46.3,52.4 54.2,52.4 54.2,52.3 54.2,42.1
		54.2,32.7 54.2,26.5 64.6,26.5 64.6,19.4 	"/>
</g>
<rect x="36.4" y="7.6" class="st1" width="28.2" height="7.1"/>
</svg>
