<?xml version="1.0" encoding="utf-8"?>
<!-- Generator: Adobe Illustrator 21.1.0, SVG Export Plug-In . SVG Version: 6.00 Build 0)  -->
<svg version="1.1" id="Layer_1" xmlns="http://www.w3.org/2000/svg" xmlns:xlink="http://www.w3.org/1999/xlink" x="0px" y="0px"
	 viewBox="0 0 72 72" style="enable-background:new 0 0 72 72;" xml:space="preserve">
<style type="text/css">
	.st0{fill:#252160;}
	.st1{fill:#ED4636;}
</style>
<g>
	<path class="st0" d="M45.9,29.3c2.9,1.5,4.3,3.9,4.3,7.2c0,3.5-1.3,6.2-4,8c-2.7,1.9-5.9,2.8-9.9,2.8c-6.8,0-14.3-3-14.6-11.6h7.9
		c0.3,3.4,2.7,5,7.1,5c3.8,0,5.7-1.2,5.7-3.6c0-1.9-1.2-2.5-6.1-3.3c-1.1-0.2-1.9-0.4-2.2-0.4c-0.3-0.1-1-0.2-2.1-0.4
		c-1.1-0.2-1.8-0.4-2.1-0.5c-0.8-0.3-3-1-3.7-1.7c-0.7-0.7-2.1-1.7-2.6-2.8c-0.5-1.1-0.9-2.7-0.9-4.4c0-3.5,1.2-6.1,3.7-7.8
		c2.4-1.7,5.5-2.6,9.3-2.6c7.9,0,13.3,4,13.8,11.1h-7.7c-0.3-3-2.3-4.5-5.9-4.5c-3.6,0-5.5,1.5-5.5,3.6c0,2.3,2,2.9,6.9,3.6
		C41.5,27.8,44.4,28.5,45.9,29.3z"/>
	<rect x="21.9" y="51.7" class="st1" width="28.2" height="7.1"/>
</g>
</svg>
